<svg width="39" height="35" viewBox="0 0 39 35" fill="none" xmlns="http://www.w3.org/2000/svg">
<path d="M34.1624 4.0125C34.5147 4.0125 34.7999 3.72705 34.7999 3.375V0.825C34.7999 0.472954 34.5147 0.1875 34.1624 0.1875C33.8101 0.1875 33.5249 0.472954 33.5249 0.825V3.375C33.5249 3.72705 33.8101 4.0125 34.1624 4.0125Z" fill="url(#paint0_linear_19_97)"/>
<path d="M34.1624 5.2876C33.8101 5.2876 33.5249 5.57305 33.5249 5.9251V8.4751C33.5249 8.82714 33.8101 9.1126 34.1624 9.1126C34.5147 9.1126 34.7999 8.82714 34.7999 8.4751V5.9251C34.7999 5.57305 34.5147 5.2876 34.1624 5.2876Z" fill="url(#paint1_linear_19_97)"/>
<path d="M37.9875 4.0127H35.4375C35.0852 4.0127 34.8 4.29815 34.8 4.6502C34.8 5.00224 35.0852 5.2877 35.4375 5.2877H37.9875C38.3399 5.2877 38.625 5.00224 38.625 4.6502C38.625 4.29815 38.3399 4.0127 37.9875 4.0127Z" fill="url(#paint2_linear_19_97)"/>
<path d="M30.3375 5.2877H32.8875C33.2398 5.2877 33.525 5.00224 33.525 4.6502C33.525 4.29815 33.2398 4.0127 32.8875 4.0127H30.3375C29.9851 4.0127 29.7 4.29815 29.7 4.6502C29.7 5.00224 29.9851 5.2877 30.3375 5.2877Z" fill="url(#paint3_linear_19_97)"/>
<path d="M4.83745 4.0125C5.18978 4.0125 5.47495 3.72705 5.47495 3.375V0.825C5.47495 0.472954 5.18978 0.1875 4.83745 0.1875C4.48512 0.1875 4.19995 0.472954 4.19995 0.825V3.375C4.19995 3.72705 4.48512 4.0125 4.83745 4.0125Z" fill="url(#paint4_linear_19_97)"/>
<path d="M4.83745 5.2876C4.48512 5.2876 4.19995 5.57305 4.19995 5.9251V8.4751C4.19995 8.82714 4.48512 9.1126 4.83745 9.1126C5.18978 9.1126 5.47495 8.82714 5.47495 8.4751V5.9251C5.47495 5.57305 5.18978 5.2876 4.83745 5.2876Z" fill="url(#paint5_linear_19_97)"/>
<path d="M6.11248 5.2877H8.66248C9.01481 5.2877 9.29998 5.00224 9.29998 4.6502C9.29998 4.29815 9.01481 4.0127 8.66248 4.0127H6.11248C5.76015 4.0127 5.47498 4.29815 5.47498 4.6502C5.47498 5.00224 5.76015 5.2877 6.11248 5.2877Z" fill="url(#paint6_linear_19_97)"/>
<path d="M4.2 4.6502C4.2 4.29815 3.91483 4.0127 3.5625 4.0127H1.0125C0.66017 4.0127 0.375 4.29815 0.375 4.6502C0.375 5.00224 0.66017 5.2877 1.0125 5.2877H3.5625C3.91483 5.2877 4.2 5.00224 4.2 4.6502Z" fill="url(#paint7_linear_19_97)"/>
<path d="M37.3311 16.8659C37.3388 16.8204 37.3448 16.7765 37.3422 16.7304C37.3416 16.7159 37.3473 16.7025 37.3456 16.6877C37.3428 16.6641 37.3297 16.6456 37.3246 16.6229C37.3146 16.579 37.3024 16.5378 37.2833 16.4965C37.2657 16.4586 37.2443 16.4253 37.2201 16.392C37.2065 16.3733 37.2005 16.3508 37.1846 16.3331L30.8096 9.32063C30.7868 9.29558 30.7552 9.28335 30.729 9.26257C30.6986 9.2381 30.6752 9.20736 30.6396 9.18829C30.6322 9.18431 30.6237 9.18488 30.6163 9.18118C30.5813 9.1641 30.5434 9.15812 30.5059 9.14759C30.4586 9.1345 30.4131 9.11999 30.365 9.118C30.3553 9.11771 30.3471 9.1123 30.3377 9.1123H8.66268C8.65329 9.1123 8.64475 9.11771 8.63536 9.118C8.58726 9.11999 8.54144 9.1345 8.4942 9.14788C8.45663 9.15841 8.41935 9.16439 8.38434 9.18146C8.37666 9.18516 8.36841 9.18459 8.36101 9.18858C8.32543 9.20765 8.30181 9.23838 8.27164 9.26286C8.24574 9.28363 8.21387 9.29587 8.1911 9.32091L1.8161 16.3334C1.80016 16.3508 1.79447 16.373 1.78109 16.3915C1.75633 16.4251 1.73499 16.4589 1.71706 16.4973C1.69799 16.5383 1.68603 16.5796 1.67607 16.6229C1.67095 16.6456 1.65757 16.6644 1.65473 16.688C1.65302 16.7028 1.659 16.7159 1.65814 16.7307C1.65587 16.7768 1.66184 16.8207 1.66924 16.8662C1.6755 16.9026 1.67977 16.9382 1.69201 16.9726C1.70539 17.011 1.72673 17.0452 1.74808 17.0811C1.76914 17.1166 1.78877 17.1514 1.81638 17.1824C1.82492 17.192 1.82805 17.2043 1.83715 17.2134L19.0497 34.4259C19.0593 34.4356 19.0727 34.439 19.083 34.4481C19.1265 34.4865 19.1737 34.5178 19.2258 34.5429C19.2452 34.5523 19.2628 34.5631 19.283 34.5705C19.3516 34.5952 19.4239 34.6123 19.5002 34.6123C19.5765 34.6123 19.6487 34.5952 19.7176 34.5699C19.7375 34.5625 19.7555 34.5517 19.7748 34.5423C19.8269 34.517 19.8741 34.4857 19.9177 34.4475C19.9279 34.4384 19.941 34.4353 19.951 34.4253L37.1635 17.2128C37.1726 17.2037 37.1757 17.1915 37.1843 17.1818C37.2119 17.1508 37.2312 17.1163 37.2526 17.0805C37.2736 17.0446 37.295 17.0105 37.3086 16.9721C37.3206 16.9379 37.3249 16.9023 37.3311 16.8659ZM8.5285 10.8452L11.983 17.2609L3.59345 16.2739L8.5285 10.8452ZM35.4077 16.2739L27.0175 17.2609L30.4719 10.8452L35.4077 16.2739ZM24.9337 18.6748L19.5005 32.2583L14.0672 18.6748H24.9337ZM14.4205 17.3998L19.5006 10.7954L24.5807 17.3998H14.4205ZM25.7811 16.8685L20.7955 10.3873H29.2702L25.7811 16.8685ZM13.2198 16.8685L9.73028 10.3873H18.205L13.2198 16.8685ZM12.6739 18.6261L17.7545 31.328L4.03626 17.6105L12.6739 18.6261ZM26.3266 18.6261L34.9638 17.6101L21.2456 31.3277L26.3266 18.6261Z" fill="url(#paint8_linear_19_97)"/>
<defs>
<linearGradient id="paint0_linear_19_97" x1="33.5674" y1="0.770579" x2="35.2418" y2="1.07929" gradientUnits="userSpaceOnUse">
<stop stop-color="#B1840E"/>
<stop offset="0.338542" stop-color="#FFE175"/>
<stop offset="0.590443" stop-color="#A77C22"/>
<stop offset="0.829739" stop-color="#FFF58C"/>
<stop offset="1" stop-color="#8D5A07"/>
</linearGradient>
<linearGradient id="paint1_linear_19_97" x1="33.5674" y1="5.87068" x2="35.2418" y2="6.17939" gradientUnits="userSpaceOnUse">
<stop stop-color="#B1840E"/>
<stop offset="0.338542" stop-color="#FFE175"/>
<stop offset="0.590443" stop-color="#A77C22"/>
<stop offset="0.829739" stop-color="#FFF58C"/>
<stop offset="1" stop-color="#8D5A07"/>
</linearGradient>
<linearGradient id="paint2_linear_19_97" x1="34.9275" y1="4.20706" x2="36.3114" y2="6.50324" gradientUnits="userSpaceOnUse">
<stop stop-color="#B1840E"/>
<stop offset="0.338542" stop-color="#FFE175"/>
<stop offset="0.590443" stop-color="#A77C22"/>
<stop offset="0.829739" stop-color="#FFF58C"/>
<stop offset="1" stop-color="#8D5A07"/>
</linearGradient>
<linearGradient id="paint3_linear_19_97" x1="29.8275" y1="4.20706" x2="31.2113" y2="6.50324" gradientUnits="userSpaceOnUse">
<stop stop-color="#B1840E"/>
<stop offset="0.338542" stop-color="#FFE175"/>
<stop offset="0.590443" stop-color="#A77C22"/>
<stop offset="0.829739" stop-color="#FFF58C"/>
<stop offset="1" stop-color="#8D5A07"/>
</linearGradient>
<linearGradient id="paint4_linear_19_97" x1="4.24245" y1="0.770579" x2="5.91685" y2="1.07929" gradientUnits="userSpaceOnUse">
<stop stop-color="#B1840E"/>
<stop offset="0.338542" stop-color="#FFE175"/>
<stop offset="0.590443" stop-color="#A77C22"/>
<stop offset="0.829739" stop-color="#FFF58C"/>
<stop offset="1" stop-color="#8D5A07"/>
</linearGradient>
<linearGradient id="paint5_linear_19_97" x1="4.24245" y1="5.87068" x2="5.91685" y2="6.17939" gradientUnits="userSpaceOnUse">
<stop stop-color="#B1840E"/>
<stop offset="0.338542" stop-color="#FFE175"/>
<stop offset="0.590443" stop-color="#A77C22"/>
<stop offset="0.829739" stop-color="#FFF58C"/>
<stop offset="1" stop-color="#8D5A07"/>
</linearGradient>
<linearGradient id="paint6_linear_19_97" x1="5.60248" y1="4.20706" x2="6.98628" y2="6.50324" gradientUnits="userSpaceOnUse">
<stop stop-color="#B1840E"/>
<stop offset="0.338542" stop-color="#FFE175"/>
<stop offset="0.590443" stop-color="#A77C22"/>
<stop offset="0.829739" stop-color="#FFF58C"/>
<stop offset="1" stop-color="#8D5A07"/>
</linearGradient>
<linearGradient id="paint7_linear_19_97" x1="0.5025" y1="4.20706" x2="1.8863" y2="6.50324" gradientUnits="userSpaceOnUse">
<stop stop-color="#B1840E"/>
<stop offset="0.338542" stop-color="#FFE175"/>
<stop offset="0.590443" stop-color="#A77C22"/>
<stop offset="0.829739" stop-color="#FFF58C"/>
<stop offset="1" stop-color="#8D5A07"/>
</linearGradient>
<linearGradient id="paint8_linear_19_97" x1="2.84414" y1="12.9995" x2="33.1474" y2="36.4594" gradientUnits="userSpaceOnUse">
<stop stop-color="#B1840E"/>
<stop offset="0.338542" stop-color="#FFE175"/>
<stop offset="0.590443" stop-color="#A77C22"/>
<stop offset="0.829739" stop-color="#FFF58C"/>
<stop offset="1" stop-color="#8D5A07"/>
</linearGradient>
</defs>
</svg>
