<svg width="26" height="35" viewBox="0 0 26 35" fill="none" xmlns="http://www.w3.org/2000/svg">
<path d="M13 34.0761L6.44809 28.9281C2.65194 25.9639 0.52002 21.5439 0.52002 16.7601V5.89206L0.988079 5.84012C4.21193 5.58012 12.4801 3.96819 12.4801 0.120117H13.5201C13.5201 3.96819 21.7881 5.58012 25.0121 5.84012L25.4801 5.89206V16.7601C25.4801 21.5439 23.3482 25.9641 19.5521 28.9281L13 34.0761ZM1.56002 6.82813V16.7601C1.56002 21.2321 3.58809 25.3401 7.07195 28.0961L13 32.7239L18.9281 28.0958C22.4119 25.34 24.44 21.232 24.44 16.7598V6.82784C22.4639 6.61978 15.028 5.52784 13 2.04399C10.9719 5.52784 3.53602 6.61984 1.56002 6.82784V6.82813Z" fill="url(#paint0_linear_19_90)"/>
<path d="M13 31.4242L7.74805 27.3161C4.4719 24.7164 2.59998 20.9203 2.59998 16.7601V7.76414L3.01609 7.71219C4.10802 7.55608 5.77224 7.24413 7.43609 6.72412C9.67224 6.048 11.4399 5.16412 12.6361 4.07219L13 3.76025L13.3639 4.07219C14.56 5.11219 16.2758 6.04834 18.5639 6.72412C20.2277 7.24412 21.8919 7.55605 22.9839 7.71219L23.4 7.76414V16.7601C23.4 20.8682 21.5281 24.7161 18.2519 27.2641L13 31.4242ZM3.63998 8.64821V16.7602C3.63998 20.5564 5.35612 24.0921 8.3719 26.4322L13 30.0722L17.628 26.4322C20.6439 24.1441 22.36 20.6084 22.36 16.7602V8.64821C21.2681 8.44015 19.76 8.18015 18.2 7.71206C16.0161 7.03594 14.248 6.20399 13 5.16399C11.7 6.20399 9.98383 7.03591 7.79998 7.71206C6.23998 8.12818 4.7319 8.44012 3.63998 8.64821Z" fill="url(#paint1_linear_19_90)"/>
<defs>
<linearGradient id="paint0_linear_19_90" x1="1.35202" y1="5.29634" x2="30.4372" y2="17.1217" gradientUnits="userSpaceOnUse">
<stop stop-color="#B1840E"/>
<stop offset="0.338542" stop-color="#FFE175"/>
<stop offset="0.590443" stop-color="#A77C22"/>
<stop offset="0.829739" stop-color="#FFF58C"/>
<stop offset="1" stop-color="#8D5A07"/>
</linearGradient>
<linearGradient id="paint1_linear_19_90" x1="3.29331" y1="7.97732" x2="27.3729" y2="17.9914" gradientUnits="userSpaceOnUse">
<stop stop-color="#B1840E"/>
<stop offset="0.338542" stop-color="#FFE175"/>
<stop offset="0.590443" stop-color="#A77C22"/>
<stop offset="0.829739" stop-color="#FFF58C"/>
<stop offset="1" stop-color="#8D5A07"/>
</linearGradient>
</defs>
</svg>
